# xmcd
#
# Track frame offsets: 
#        150
#        15000
#        32384
#        47243
#        66416
#        83184
#        103897
#        115270
#        127424
#        146253
#        166949
#        184405
#        204997
#        223010
#        242297
#        261535
#        278668
#        296110
#        314534
#        333751
#
# Disc length: 4798 seconds
#
# Revision: 0
# Processed by: cddbd v1.5.2PL0 Copyright (c) Steve Scherf et al.
# Submitted via: ExactAudioCopy v0.99pb4
#
DISCID=2b12bc14
DTITLE=Various Artist - prevue promo 1162A-3
DYEAR=2005
DGENRE=pop
TTITLE0=Billy Idol - Sherri
TTITLE1=Darvl Hall and John Oates - Ooh Child
TTITLE2=Brie Larson - Whatever
TTITLE3=Kelly Osbourne - One Word
TTITLE4=Lisbeth Scott - No One But You
TTITLE5=Little Charlie and The Nightcats - Keep Your Big Mouth Shut  
TTITLE6=Tegan And Sara -  Walking With A Ghost
TTITLE7=Tegan And Sara - Walking with a ghost(live)
TTITLE8=Marcia Ball - No Ordinary Woman
TTITLE9=Stephen Marley - Mind control
TTITLE10=M.I.A. - Galane
TTITLE11=Morrissey - How Soon is now
TTITLE12=Jimmy Eat World - Futures
TTITLE13=The Mars Volta - L'Via L'Viaquez
TTITLE14=Starting Line - Bedroom Talk
TTITLE15=Megan McCauley - Die For You(  movie fantastic 4)
TTITLE16=Megan McCauley - Die For You(alt mix , movie Fantastic 4)
TTITLE17=Submersed - In Due Time
TTITLE18=RA -  Fallen Angels
TTITLE19=Gizmachi - The Answer
EXTD=
EXTT0=
EXTT1=
EXTT2=
EXTT3=
EXTT4=
EXTT5=
EXTT6=
EXTT7=
EXTT8=
EXTT9=
EXTT10=
EXTT11=
EXTT12=
EXTT13=
EXTT14=
EXTT15=
EXTT16=
EXTT17=
EXTT18=
EXTT19=
PLAYORDER=
